<svg width="40" height="40" viewBox="0 0 40 40" fill="none" xmlns="http://www.w3.org/2000/svg">
<path d="M32.0654 9.3H31.3987L25.7654 3.66666C25.3154 3.21666 24.582 3.21666 24.1154 3.66666C23.6654 4.11666 23.6654 4.85 24.1154 5.31666L28.0987 9.3H11.8987L15.882 5.31666C16.332 4.86666 16.332 4.13333 15.882 3.66666C15.432 3.21666 14.6987 3.21666 14.232 3.66666L8.61537 9.3H7.9487C6.4487 9.3 3.33203 9.3 3.33203 13.5667C3.33203 15.1833 3.66536 16.25 4.36536 16.95C4.76536 17.3667 5.2487 17.5833 5.76536 17.7C6.2487 17.8167 6.76536 17.8333 7.26536 17.8333H32.732C33.2487 17.8333 33.732 17.8 34.1987 17.7C35.5987 17.3667 36.6654 16.3667 36.6654 13.5667C36.6654 9.3 33.5487 9.3 32.0654 9.3Z" fill="black"/>
<path d="M31.7511 20H8.11774C7.08441 20 6.30107 20.9167 6.46774 21.9333L7.86774 30.5C8.33441 33.3667 9.58441 36.6667 15.1344 36.6667H24.4844C30.1011 36.6667 31.1011 33.85 31.7011 30.7L33.3844 21.9833C33.5844 20.95 32.8011 20 31.7511 20ZM17.6844 30.75C17.6844 31.4 17.1677 31.9167 16.5344 31.9167C15.8844 31.9167 15.3677 31.4 15.3677 30.75V25.25C15.3677 24.6167 15.8844 24.0833 16.5344 24.0833C17.1677 24.0833 17.6844 24.6167 17.6844 25.25V30.75ZM24.8177 30.75C24.8177 31.4 24.3011 31.9167 23.6511 31.9167C23.0177 31.9167 22.4844 31.4 22.4844 30.75V25.25C22.4844 24.6167 23.0177 24.0833 23.6511 24.0833C24.3011 24.0833 24.8177 24.6167 24.8177 25.25V30.75Z" fill="black"/>
</svg>
