<svg width="129" height="124" viewBox="0 0 129 124" fill="none" xmlns="http://www.w3.org/2000/svg">
<path d="M28.12 0L28.22 63.79H29.47H31.78L34.96 64.18L39.1 64.61L43.72 65.58L48.25 66.68L52.82 68.22L58.02 70.25L62.36 72.27V11.03L59.66 9.44L54.89 7.17L48.35 4.62L42.04 2.6L36.74 1.3L33.42 0.67L28.12 0Z" fill="white"/>
<path d="M64.72 72.27V10.93L71.46 7.46L78.44 4.77L84.75 2.7L93.07 0.82L98.76 0V63.7L95.77 63.75L90.81 64.23L84.6 65.24L79.16 66.59L72.56 68.85" fill="#329FD9"/>
<path d="M21.38 6.83984V72.7298L24.34 72.2698L27.9 71.9298H31.33L35.47 72.0598L39.36 72.5098L46.36 73.7298L52.33 75.2999L57.37 77.0298L63.24 79.4698L63.53 79.5998L69.02 76.9998L74.92 74.9498L81.5 73.2798L88.76 72.2698L94.5 71.8398L100.47 71.9998L105.61 72.6398V6.83984L103.72 7.05984L101.15 7.66984L101.12 65.1598L101.05 66.1498L99 66.0598L92.99 66.3798L86.29 67.3398L79.16 68.9798L73.06 71.0298L64.27 74.9798L63.98 75.2999L62.95 75.2398L55.12 71.5798L49.08 69.4598L42.95 67.8498L36.41 66.6998L27.96 66.1498L25.94 66.1898L25.88 7.57984L23.76 7.15984L21.38 6.83984Z" fill="white"/>
<path d="M14.61 13.6401L14.55 83.8701L17.37 82.7801L21.58 81.7901L25.94 81.1101L30.63 80.7301L35.51 80.6901L42.47 81.1101L49.85 82.1701L56.69 83.8701L62.47 85.9601L63.5 86.4401L66.06 85.1601L72.42 83.0101L76.56 81.8501L84.75 80.8901L92.48 80.5301L100.02 80.9201L106.35 81.8201L112.45 83.5501V13.6401L110.01 13.9301L107.98 14.5401L108.02 75.6501L105.35 74.9201L100.7 74.4001L95.4 74.2701L89.21 74.6601L79.55 76.2601L73.8 77.8101L67.67 80.2101L64.01 82.0101L63.08 82.0701L60 80.6001L52.58 77.9301L44.24 75.7501L37.69 74.7201L32.07 74.3101L27.23 74.4301L24.59 74.5601L20.84 75.2401L19.14 75.1401L19.04 14.3301L16.86 13.9001L14.61 13.6401Z" fill="white"/>
<path d="M2.07741 115.03V96.1207H13.8679V98.5767H4.9304V103.747H9.15909C10.5625 103.747 11.7536 103.975 12.7322 104.43C13.7171 104.886 14.468 105.529 14.9851 106.36C15.5083 107.191 15.7699 108.17 15.7699 109.296C15.7699 110.423 15.5083 111.417 14.9851 112.278C14.468 113.14 13.7171 113.814 12.7322 114.3C11.7536 114.787 10.5625 115.03 9.15909 115.03H2.07741ZM4.9304 112.629H9.15909C9.97159 112.629 10.6579 112.469 11.218 112.149C11.7843 111.829 12.2121 111.414 12.5014 110.903C12.7969 110.392 12.9446 109.844 12.9446 109.259C12.9446 108.41 12.6184 107.68 11.9659 107.071C11.3134 106.455 10.3778 106.148 9.15909 106.148H4.9304V112.629ZM20.4787 115.288V112.777H21.6143C22.0883 112.777 22.4792 112.697 22.7869 112.537C23.1009 112.377 23.3563 112.161 23.5533 111.891C23.7564 111.614 23.9257 111.312 24.0611 110.986L24.3288 110.312L17.6811 96.1207H20.7095L25.6676 107.053L30.081 96.1207H33.0724L26.5355 111.752C26.2585 112.38 25.9384 112.962 25.5753 113.497C25.2183 114.033 24.7412 114.467 24.1442 114.799C23.5471 115.125 22.7562 115.288 21.7713 115.288H20.4787ZM46.9888 115.03L40.6365 106.554H38.6238V115.03H35.7708V96.1207H38.6238V104.107H39.5563L46.7026 96.1207H50.1834L42.6216 104.587L50.4696 115.03H46.9888ZM53.1126 115.03V96.1207H60.0373C61.3791 96.1207 62.4902 96.3423 63.3704 96.7855C64.2506 97.2225 64.9092 97.8165 65.3462 98.5674C65.7833 99.3122 66.0018 100.152 66.0018 101.088C66.0018 101.876 65.8571 102.541 65.5678 103.082C65.2785 103.618 64.8907 104.049 64.4045 104.375C63.9244 104.695 63.395 104.929 62.8164 105.077V105.261C63.4442 105.292 64.0567 105.495 64.6538 105.871C65.257 106.24 65.7556 106.766 66.1495 107.45C66.5434 108.133 66.7404 108.964 66.7404 109.942C66.7404 110.909 66.5127 111.777 66.0572 112.546C65.6078 113.309 64.9123 113.916 63.9705 114.365C63.0288 114.808 61.8254 115.03 60.3604 115.03H53.1126ZM55.9656 112.583H60.0835C61.4499 112.583 62.4286 112.318 63.0195 111.789C63.6104 111.26 63.9059 110.598 63.9059 109.804C63.9059 109.207 63.7551 108.659 63.4535 108.16C63.1519 107.662 62.721 107.265 62.1609 106.969C61.6069 106.674 60.9483 106.526 60.185 106.526H55.9656V112.583ZM55.9656 104.301H59.788C60.4281 104.301 61.0037 104.178 61.5146 103.932C62.0316 103.686 62.4409 103.341 62.7425 102.898C63.0503 102.448 63.2042 101.919 63.2042 101.31C63.2042 100.528 62.9303 99.8724 62.3825 99.343C61.8346 98.8136 60.9944 98.549 59.8619 98.549H55.9656V104.301ZM70.1243 96.1207H72.9496V110.007H73.125L82.7457 96.1207H85.3864V115.03H82.5334V101.162H82.358L72.7557 115.03H70.1243V96.1207ZM106.324 112.509L106.075 119.499H103.231V115.03H101.902V112.509H106.324ZM89.5481 115.03V96.1207H92.2811V112.555H101.403V96.1207H104.145V115.03H89.5481ZM111.052 115.03H108.023L114.828 96.1207H118.124L124.929 115.03H121.9L116.555 99.5554H116.407L111.052 115.03ZM111.559 107.625H121.383V110.026H111.559V107.625Z" fill="white"/>
</svg>
