<svg width="51" height="50" viewBox="0 0 51 50" fill="none" xmlns="http://www.w3.org/2000/svg">
<rect width="50" height="50" transform="translate(0.135742)" fill="white"/>
<path d="M33.865 4.16675H16.4067C8.82332 4.16675 4.30249 8.68758 4.30249 16.2709V33.7084C4.30249 41.3126 8.82332 45.8334 16.4067 45.8334H33.8442C41.4275 45.8334 45.9483 41.3126 45.9483 33.7292V16.2709C45.9692 8.68758 41.4483 4.16675 33.865 4.16675ZM30.9483 26.1042L23.5942 33.4584C23.2817 33.7709 22.8858 33.9167 22.49 33.9167C22.0942 33.9167 21.6983 33.7709 21.3858 33.4584C20.7817 32.8542 20.7817 31.8542 21.3858 31.2501L27.6358 25.0001L21.3858 18.7501C20.7817 18.1459 20.7817 17.1459 21.3858 16.5417C21.99 15.9376 22.99 15.9376 23.5942 16.5417L30.9483 23.8959C31.5733 24.5001 31.5733 25.5001 30.9483 26.1042Z" fill="black"/>
</svg>
