<svg width="51" height="50" viewBox="0 0 51 50" fill="none" xmlns="http://www.w3.org/2000/svg">
<rect width="50" height="50" transform="matrix(-1 0 0 -1 50.1357 50)" fill="white"/>
<path d="M16.4065 45.8333H33.8648C41.4482 45.8333 45.969 41.3124 45.969 33.7291V16.2916C45.969 8.68742 41.4482 4.16659 33.8648 4.16659H16.4273C8.84399 4.16659 4.32316 8.68742 4.32316 16.2708V33.7291C4.30233 41.3124 8.82316 45.8333 16.4065 45.8333ZM19.3232 23.8958L26.6773 16.5416C26.9898 16.2291 27.3857 16.0833 27.7815 16.0833C28.1773 16.0833 28.5732 16.2291 28.8857 16.5416C29.4898 17.1458 29.4898 18.1458 28.8857 18.7499L22.6357 24.9999L28.8857 31.2499C29.4898 31.8541 29.4898 32.8541 28.8857 33.4583C28.2815 34.0624 27.2815 34.0624 26.6773 33.4583L19.3232 26.1041C18.6982 25.4999 18.6982 24.4999 19.3232 23.8958Z" fill="black"/>
</svg>
