<svg width="25" height="24" viewBox="0 0 25 24" fill="none" xmlns="http://www.w3.org/2000/svg">
<path d="M12.6667 2.25C13.081 2.25 13.4167 2.58579 13.4167 3V5.25C13.4167 5.66421 13.081 6 12.6667 6C12.2525 6 11.9167 5.66421 11.9167 5.25V3C11.9167 2.58579 12.2525 2.25 12.6667 2.25Z" fill="#262626"/>
<path d="M8.16675 12C8.16675 9.51472 10.1815 7.5 12.6667 7.5C15.152 7.5 17.1667 9.51472 17.1667 12C17.1667 14.4853 15.152 16.5 12.6667 16.5C10.1815 16.5 8.16675 14.4853 8.16675 12Z" fill="#262626"/>
<path d="M19.5611 6.16634C19.854 5.87344 19.854 5.39857 19.5611 5.10568C19.2682 4.81278 18.7933 4.81278 18.5004 5.10568L16.9094 6.69667C16.6165 6.98956 16.6165 7.46444 16.9094 7.75733C17.2023 8.05022 17.6772 8.05022 17.9701 7.75733L19.5611 6.16634Z" fill="#262626"/>
<path d="M22.4167 12C22.4167 12.4142 22.081 12.75 21.6667 12.75H19.4167C19.0025 12.75 18.6667 12.4142 18.6667 12C18.6667 11.5858 19.0025 11.25 19.4167 11.25H21.6667C22.081 11.25 22.4167 11.5858 22.4167 12Z" fill="#262626"/>
<path d="M18.5003 18.8943C18.7932 19.1871 19.2681 19.1871 19.561 18.8943C19.8539 18.6014 19.8539 18.1265 19.561 17.8336L17.97 16.2426C17.6771 15.9497 17.2022 15.9497 16.9093 16.2426C16.6164 16.5355 16.6164 17.0104 16.9093 17.3033L18.5003 18.8943Z" fill="#262626"/>
<path d="M12.6667 18C13.081 18 13.4167 18.3358 13.4167 18.75V21C13.4167 21.4142 13.081 21.75 12.6667 21.75C12.2525 21.75 11.9167 21.4142 11.9167 21V18.75C11.9167 18.3358 12.2525 18 12.6667 18Z" fill="#262626"/>
<path d="M8.42425 17.3033C8.71714 17.0104 8.71714 16.5355 8.42425 16.2426C8.13136 15.9497 7.65648 15.9497 7.36359 16.2426L5.7726 17.8336C5.47971 18.1265 5.47971 18.6014 5.7726 18.8943C6.06549 19.1872 6.54037 19.1872 6.83326 18.8943L8.42425 17.3033Z" fill="#262626"/>
<path d="M6.66675 12C6.66675 12.4142 6.33096 12.75 5.91675 12.75H3.66675C3.25253 12.75 2.91675 12.4142 2.91675 12C2.91675 11.5858 3.25253 11.25 3.66675 11.25H5.91675C6.33096 11.25 6.66675 11.5858 6.66675 12Z" fill="#262626"/>
<path d="M7.36348 7.75732C7.65637 8.05021 8.13124 8.05021 8.42414 7.75732C8.71703 7.46443 8.71703 6.98955 8.42414 6.69666L6.83315 5.10567C6.54025 4.81278 6.06538 4.81278 5.77249 5.10567C5.47959 5.39856 5.47959 5.87344 5.77249 6.16633L7.36348 7.75732Z" fill="#262626"/>
</svg>
