<svg width="25" height="24" viewBox="0 0 25 24" fill="none" xmlns="http://www.w3.org/2000/svg">
<path d="M17.5479 4.34537C15.4768 5.17395 13.2585 5.71314 10.9427 5.91296C10.2752 5.97055 9.59951 5.99996 8.91675 5.99996H8.16675C5.26725 5.99996 2.91675 8.35046 2.91675 11.25C2.91675 13.8496 4.80619 16.0079 7.28672 16.4265C7.62099 17.7955 8.0848 19.1137 8.66439 20.3674C9.12846 21.3711 10.3386 21.6874 11.247 21.1629L11.9034 20.784C12.7834 20.2759 13.069 19.1913 12.6754 18.3158C12.4406 17.7935 12.231 17.2573 12.0482 16.7089C13.9656 16.967 15.8086 17.4587 17.5479 18.1545C18.2736 15.9852 18.6667 13.6635 18.6667 11.2499C18.6667 8.83642 18.2736 6.51472 17.5479 4.34537Z" fill="#262626"/>
<path d="M18.9274 3.74066C19.7308 6.09636 20.1667 8.62224 20.1667 11.2499C20.1667 13.8776 19.7308 16.4035 18.9274 18.7593C18.8722 18.921 18.8155 19.082 18.7569 19.2422C18.6145 19.6311 18.8144 20.0619 19.2034 20.2043C19.5923 20.3466 20.0231 20.1467 20.1655 19.7578C20.3055 19.3753 20.4363 18.9883 20.5577 18.5972C21.0814 16.9105 21.4295 15.1468 21.5807 13.3277C22.0977 12.7893 22.4167 12.0566 22.4167 11.25C22.4167 10.4433 22.0977 9.71067 21.5807 9.17222C21.4295 7.35313 21.0814 5.58942 20.5577 3.90268C20.4363 3.51159 20.3055 3.12466 20.1655 2.74215C20.0231 2.35318 19.5923 2.15328 19.2034 2.29566C18.8144 2.43804 18.6145 2.86879 18.7569 3.25777C18.8155 3.41789 18.8722 3.57891 18.9274 3.74066Z" fill="#262626"/>
</svg>
