<svg width="25" height="24" viewBox="0 0 25 24" fill="none" xmlns="http://www.w3.org/2000/svg">
<path fill-rule="evenodd" clip-rule="evenodd" d="M9.33337 4.5C9.66823 4.5 9.96252 4.72198 10.0545 5.04396L10.8677 7.89015C11.2237 9.13593 12.1974 10.1097 13.4432 10.4657L16.2894 11.2789C16.6114 11.3709 16.8334 11.6651 16.8334 12C16.8334 12.3349 16.6114 12.6291 16.2894 12.7211L13.4432 13.5343C12.1974 13.8903 11.2237 14.8641 10.8677 16.1099L10.0545 18.956C9.96252 19.278 9.66823 19.5 9.33337 19.5C8.99851 19.5 8.70422 19.278 8.61223 18.956L7.79903 16.1099C7.4431 14.8641 6.4693 13.8903 5.22352 13.5343L2.37733 12.7211C2.05536 12.6291 1.83337 12.3349 1.83337 12C1.83337 11.6651 2.05536 11.3709 2.37733 11.2789L5.22352 10.4657C6.4693 10.1097 7.4431 9.13593 7.79903 7.89015L8.61223 5.04396C8.70422 4.72198 8.99851 4.5 9.33337 4.5Z" fill="#262626"/>
<path fill-rule="evenodd" clip-rule="evenodd" d="M18.3334 1.5C18.6775 1.5 18.9775 1.73422 19.061 2.0681L19.3198 3.10356C19.555 4.04406 20.2893 4.7784 21.2298 5.01353L22.2653 5.27239C22.5991 5.35586 22.8334 5.65585 22.8334 6C22.8334 6.34415 22.5991 6.64414 22.2653 6.72761L21.2298 6.98647C20.2893 7.2216 19.555 7.95594 19.3198 8.89644L19.061 9.9319C18.9775 10.2658 18.6775 10.5 18.3334 10.5C17.9892 10.5 17.6892 10.2658 17.6058 9.9319L17.3469 8.89644C17.1118 7.95594 16.3774 7.2216 15.4369 6.98647L14.4015 6.72761C14.0676 6.64414 13.8334 6.34415 13.8334 6C13.8334 5.65585 14.0676 5.35586 14.4015 5.27239L15.4369 5.01353C16.3774 4.7784 17.1118 4.04406 17.3469 3.10356L17.6058 2.0681C17.6892 1.73422 17.9892 1.5 18.3334 1.5Z" fill="#262626"/>
<path fill-rule="evenodd" clip-rule="evenodd" d="M16.8334 15C17.1562 15 17.4428 15.2066 17.5449 15.5128L17.9391 16.6956C18.0884 17.1435 18.4399 17.4949 18.8878 17.6442L20.0705 18.0385C20.3768 18.1406 20.5834 18.4272 20.5834 18.75C20.5834 19.0728 20.3768 19.3594 20.0705 19.4615L18.8878 19.8558C18.4399 20.0051 18.0884 20.3565 17.9391 20.8044L17.5449 21.9872C17.4428 22.2934 17.1562 22.5 16.8334 22.5C16.5106 22.5 16.2239 22.2934 16.1219 21.9872L15.7276 20.8044C15.5783 20.3565 15.2268 20.0051 14.7789 19.8558L13.5962 19.4615C13.2899 19.3594 13.0834 19.0728 13.0834 18.75C13.0834 18.4272 13.2899 18.1406 13.5962 18.0385L14.7789 17.6442C15.2268 17.4949 15.5783 17.1435 15.7276 16.6956L16.1219 15.5128C16.2239 15.2066 16.5106 15 16.8334 15Z" fill="#262626"/>
</svg>
