<svg width="25" height="24" viewBox="0 0 25 24" fill="none" xmlns="http://www.w3.org/2000/svg">
<path fill-rule="evenodd" clip-rule="evenodd" d="M19.7824 8.44818L16.7212 10.9992C16.8708 11.6574 16.8708 12.3426 16.7212 13.0008L19.7824 15.5518C20.8504 13.3118 20.8504 10.6882 19.7824 8.44818ZM15.8852 19.449L13.3342 16.3878C12.6759 16.5374 11.9908 16.5374 11.3325 16.3878L8.78155 19.449C11.0216 20.517 13.6451 20.517 15.8852 19.449ZM4.88439 15.5518L7.94558 13.0008C7.79597 12.3426 7.79597 11.6574 7.94558 10.9992L4.88439 8.44818C3.81637 10.6882 3.81637 13.3118 4.88439 15.5518ZM8.78155 4.55102L11.3325 7.6122C11.9908 7.4626 12.6759 7.4626 13.3342 7.6122L15.8852 4.55102C13.6451 3.48299 11.0216 3.48299 8.78155 4.55102ZM17.4389 3.6912C18.0758 4.08325 18.6769 4.55493 19.2277 5.10571C19.7784 5.65649 20.2501 6.25755 20.6422 6.89448C22.5638 10.0163 22.5638 13.9837 20.6422 17.1055C20.2501 17.7424 19.7784 18.3435 19.2277 18.8943C18.6769 19.4451 18.0758 19.9167 17.4389 20.3088C14.3171 22.2304 10.3497 22.2304 7.22786 20.3088C6.59093 19.9167 5.98987 19.4451 5.43908 18.8943C4.8883 18.3435 4.41663 17.7424 4.02457 17.1055C2.10298 13.9837 2.10297 10.0163 4.02457 6.89448C4.41663 6.25755 4.8883 5.65649 5.43908 5.10571C5.98987 4.55493 6.59093 4.08325 7.22786 3.6912C10.3497 1.7696 14.3171 1.7696 17.4389 3.6912ZM14.4547 9.87868C14.1291 9.55313 13.7491 9.31907 13.3448 9.17471C12.6924 8.94176 11.9744 8.94176 11.3219 9.17471C10.9176 9.31907 10.5376 9.55313 10.2121 9.87868C9.8865 10.2042 9.65244 10.5842 9.50809 10.9885C9.27514 11.641 9.27514 12.359 9.50809 13.0114C9.65244 13.4158 9.8865 13.7958 10.2121 14.1213C10.5376 14.4469 10.9176 14.6809 11.3219 14.8253C11.9744 15.0582 12.6924 15.0582 13.3448 14.8253C13.7491 14.6809 14.1291 14.4469 14.4547 14.1213C14.7802 13.7958 15.0143 13.4158 15.1587 13.0115C15.3916 12.359 15.3916 11.641 15.1587 10.9885C15.0143 10.5842 14.7802 10.2042 14.4547 9.87868Z" fill="#262626"/>
</svg>
