<svg width="99" height="87" viewBox="0 0 99 87" fill="none" xmlns="http://www.w3.org/2000/svg">
<path d="M14.12 0L14.22 63.79H15.47H17.78L20.96 64.18L25.1 64.61L29.72 65.58L34.25 66.68L38.82 68.22L44.02 70.25L48.36 72.27V11.03L45.66 9.44L40.89 7.17L34.35 4.62L28.04 2.6L22.74 1.3L19.42 0.67L14.12 0Z" fill="#009FE3"/>
<path d="M50.72 72.27V10.93L57.46 7.46L64.44 4.77L70.75 2.7L79.07 0.82L84.76 0V63.7L81.77 63.75L76.81 64.23L70.6 65.24L65.16 66.59L58.56 68.85" fill="#1D1D1B"/>
<path d="M7.38 6.84V72.73L10.34 72.27L13.9 71.93H17.33L21.47 72.06L25.36 72.51L32.36 73.73L38.33 75.3L43.37 77.03L49.24 79.47L49.53 79.6L55.02 77L60.92 74.95L67.5 73.28L74.76 72.27L80.5 71.84L86.47 72L91.61 72.64V6.84L89.72 7.06L87.15 7.67L87.12 65.16L87.05 66.15L85 66.06L78.99 66.38L72.29 67.34L65.16 68.98L59.06 71.03L50.27 74.98L49.98 75.3L48.95 75.24L41.12 71.58L35.08 69.46L28.95 67.85L22.41 66.7L13.96 66.15L11.94 66.19L11.88 7.58L9.76001 7.16L7.38 6.84Z" fill="#009FE3"/>
<path d="M0.610003 13.64L0.550003 83.87L3.37 82.78L7.58 81.79L11.94 81.11L16.63 80.73L21.51 80.69L28.47 81.11L35.85 82.17L42.69 83.87L48.47 85.96L49.5 86.44L52.06 85.16L58.42 83.01L62.56 81.85L70.75 80.89L78.48 80.53L86.02 80.92L92.35 81.82L98.45 83.55V13.64L96.01 13.93L93.98 14.54L94.02 75.65L91.35 74.92L86.7 74.4L81.4 74.27L75.21 74.66L65.55 76.26L59.8 77.81L53.67 80.21L50.01 82.01L49.08 82.07L46 80.6L38.58 77.93L30.24 75.75L23.69 74.72L18.07 74.31L13.23 74.43L10.59 74.56L6.84 75.24L5.14 75.14L5.04 14.33L2.86 13.9L0.610003 13.64Z" fill="#009FE3"/>
</svg>
