<svg width="39" height="39" viewBox="0 0 39 39" fill="none" xmlns="http://www.w3.org/2000/svg">
<path d="M14.4784 33.5887C14.1696 33.5887 13.8609 33.475 13.6171 33.2312C13.1459 32.76 13.1459 31.98 13.6171 31.5087L24.2121 20.9137C24.9921 20.1337 24.9921 18.8662 24.2121 18.0862L13.6171 7.49122C13.1459 7.01997 13.1459 6.23997 13.6171 5.76872C14.0884 5.29747 14.8684 5.29747 15.3396 5.76872L25.9346 16.3637C26.7634 17.1925 27.2346 18.3137 27.2346 19.5C27.2346 20.6862 26.7796 21.8075 25.9346 22.6362L15.3396 33.2312C15.0959 33.4587 14.7871 33.5887 14.4784 33.5887Z" fill="#292D32"/>
</svg>
