<svg width="29" height="29" viewBox="0 0 29 29" fill="none" xmlns="http://www.w3.org/2000/svg">
<path d="M29 11.6984C29 5.49642 23.9713 0.467773 17.7694 0.467773C11.5675 0.467773 6.53877 5.49642 6.53877 11.6984C6.53877 14.0832 7.28271 16.295 8.54979 18.113L0.0581455 26.606C-0.018528 26.6826 -0.0185261 26.8068 0.0528736 26.8795L1.65287 28.4795C1.72684 28.5535 1.85368 28.5469 1.92641 28.4742L10.3084 20.0922C12.2915 21.8574 14.905 22.9289 17.7695 22.9289C23.9713 22.929 29 17.9003 29 11.6984ZM7.86005 11.6984C7.86005 6.22578 12.2968 1.78901 17.7694 1.78901C23.242 1.78901 27.6787 6.22573 27.6787 11.6984C27.6787 17.171 23.242 21.6077 17.7694 21.6077C12.2968 21.6077 7.86005 17.171 7.86005 11.6984Z" fill="#5F5F5F"/>
</svg>
