<svg width="30" height="30" viewBox="0 0 30 30" fill="none" xmlns="http://www.w3.org/2000/svg">
<path d="M1.16001 30C1.00823 30.0009 0.85776 29.9718 0.717242 29.9143C0.576724 29.8569 0.448918 29.7723 0.341151 29.6654C0.233052 29.5582 0.147251 29.4306 0.0886985 29.29C0.0301458 29.1494 0 28.9986 0 28.8463C0 28.694 0.0301458 28.5432 0.0886985 28.4026C0.147251 28.2621 0.233052 28.1345 0.341151 28.0272L28.0209 0.339283C28.2381 0.122044 28.5326 0 28.8398 0C29.1469 0 29.4414 0.122044 29.6586 0.339283C29.8758 0.556522 29.9978 0.851162 29.9978 1.15838C29.9978 1.46561 29.8758 1.76025 29.6586 1.97749L1.97887 29.6654C1.8711 29.7723 1.7433 29.8569 1.60278 29.9143C1.46226 29.9718 1.3118 30.0009 1.16001 30Z" fill="white"/>
<path d="M28.8397 30C28.688 30.0009 28.5375 29.9718 28.397 29.9143C28.2565 29.8569 28.1287 29.7723 28.0209 29.6654L0.341136 1.97749C0.123961 1.76025 0.00195312 1.46561 0.00195312 1.15838C0.00195313 0.851161 0.123961 0.556522 0.341136 0.339283C0.558311 0.122044 0.852863 2.28899e-09 1.15999 0C1.46713 -2.28899e-09 1.76168 0.122044 1.97885 0.339283L29.6586 28.0272C29.7667 28.1345 29.8525 28.2621 29.9111 28.4026C29.9696 28.5432 29.9998 28.694 29.9998 28.8463C29.9998 28.9986 29.9696 29.1494 29.9111 29.29C29.8525 29.4306 29.7667 29.5582 29.6586 29.6654C29.5508 29.7723 29.423 29.8569 29.2825 29.9143C29.142 29.9718 28.9915 30.0009 28.8397 30Z" fill="white"/>
</svg>
