<svg width="76" height="76" viewBox="0 0 76 76" fill="none" xmlns="http://www.w3.org/2000/svg">
<path d="M51.2684 6.33331H24.7317C13.205 6.33331 6.33337 13.205 6.33337 24.7316V51.2366C6.33337 62.795 13.205 69.6666 24.7317 69.6666H51.2367C62.7634 69.6666 69.635 62.795 69.635 51.2683V24.7316C69.6667 13.205 62.795 6.33331 51.2684 6.33331ZM46.835 39.6783L35.6567 50.8566C35.1817 51.3316 34.58 51.5533 33.9784 51.5533C33.3767 51.5533 32.775 51.3316 32.3 50.8566C31.3817 49.9383 31.3817 48.4183 32.3 47.5L41.8 38L32.3 28.5C31.3817 27.5816 31.3817 26.0616 32.3 25.1433C33.2184 24.225 34.7384 24.225 35.6567 25.1433L46.835 36.3216C47.785 37.24 47.785 38.76 46.835 39.6783Z" fill="white"/>
</svg>
