<svg width="76" height="76" viewBox="0 0 76 76" fill="none" xmlns="http://www.w3.org/2000/svg">
<path d="M24.7317 69.6667H51.2683C62.795 69.6667 69.6667 62.795 69.6667 51.2684V24.7634C69.6667 13.205 62.795 6.33336 51.2683 6.33336H24.7633C13.2367 6.33336 6.36501 13.205 6.36501 24.7317V51.2684C6.33334 62.795 13.205 69.6667 24.7317 69.6667ZM29.165 36.3217L40.3433 25.1434C40.8183 24.6684 41.42 24.4467 42.0217 24.4467C42.6233 24.4467 43.225 24.6684 43.7 25.1434C44.6183 26.0617 44.6183 27.5817 43.7 28.5L34.2 38L43.7 47.5C44.6183 48.4184 44.6183 49.9384 43.7 50.8567C42.7817 51.775 41.2617 51.775 40.3433 50.8567L29.165 39.6784C28.215 38.76 28.215 37.24 29.165 36.3217Z" fill="white"/>
</svg>
