<svg width="40" height="40" viewBox="0 0 40 40" fill="none" xmlns="http://www.w3.org/2000/svg">
<rect width="40" height="40" fill="white"/>
<path d="M12.0654 3.33334H8.8987C5.2487 3.33334 3.33203 5.25001 3.33203 8.88334V12.05C3.33203 15.6833 5.2487 17.6 8.88203 17.6H12.0487C15.682 17.6 17.5987 15.6833 17.5987 12.05V8.88334C17.6154 5.25001 15.6987 3.33334 12.0654 3.33334Z" fill="black"/>
<path d="M31.1151 3.33334H27.9484C24.3151 3.33334 22.3984 5.25001 22.3984 8.88334V12.05C22.3984 15.6833 24.3151 17.6 27.9484 17.6H31.1151C34.7484 17.6 36.6651 15.6833 36.6651 12.05V8.88334C36.6651 5.25001 34.7484 3.33334 31.1151 3.33334Z" fill="black"/>
<path d="M31.1151 22.3833H27.9484C24.3151 22.3833 22.3984 24.3 22.3984 27.9333V31.1C22.3984 34.7333 24.3151 36.65 27.9484 36.65H31.1151C34.7484 36.65 36.6651 34.7333 36.6651 31.1V27.9333C36.6651 24.3 34.7484 22.3833 31.1151 22.3833Z" fill="black"/>
<path d="M12.0654 22.3833H8.8987C5.2487 22.3833 3.33203 24.3 3.33203 27.9333V31.1C3.33203 34.75 5.2487 36.6667 8.88203 36.6667H12.0487C15.682 36.6667 17.5987 34.75 17.5987 31.1167V27.95C17.6154 24.3 15.6987 22.3833 12.0654 22.3833Z" fill="black"/>
</svg>
