<svg width="40" height="40" viewBox="0 0 40 40" fill="none" xmlns="http://www.w3.org/2000/svg">
<path d="M24.9987 3.33331H9.9987C9.83203 3.33331 9.66536 3.33331 9.4987 3.49998C9.33203 3.49998 9.33203 3.66665 9.16536 3.66665C9.16536 3.66665 9.16536 3.66665 8.9987 3.83331C8.83203 3.83331 8.66536 3.99998 8.66536 3.99998C8.66536 3.99998 8.66536 3.99998 8.66536 4.16665C8.4987 4.33331 8.33203 4.49998 8.33203 4.66665C8.33203 4.83331 8.33203 4.99998 8.33203 4.99998V29.6666C8.33203 30.3333 8.66536 31 9.33203 31.1666L20.332 35.6666C20.6654 35.8333 21.1654 35.8333 21.6654 35.8333C22.332 35.8333 22.9987 35.6666 23.4987 35.3333C24.4987 34.6666 24.9987 33.6666 24.9987 32.5V31.6666C27.832 31.6666 29.9987 29.5 29.9987 26.6666V8.33331C29.9987 5.49998 27.832 3.33331 24.9987 3.33331ZM21.6654 30V32.6666L11.6654 28.6666V7.49998L19.6654 10.6666C20.9987 11.1666 21.6654 12.3333 21.6654 13.8333V30ZM26.6654 26.6666C26.6654 27.6666 25.9987 28.3333 24.9987 28.3333V13.8333C24.9987 11.1666 23.332 8.66665 20.832 7.66665L18.4987 6.66665H24.9987C25.9987 6.66665 26.6654 7.33331 26.6654 8.33331V26.6666Z" fill="#E30000"/>
<path d="M18.3307 23.3333C19.2512 23.3333 19.9974 22.5871 19.9974 21.6667C19.9974 20.7462 19.2512 20 18.3307 20C17.4103 20 16.6641 20.7462 16.6641 21.6667C16.6641 22.5871 17.4103 23.3333 18.3307 23.3333Z" fill="#E30000"/>
</svg>
