<svg width="40" height="40" viewBox="0 0 40 40" fill="none" xmlns="http://www.w3.org/2000/svg">
<path d="M34.9987 12.5333V22.3333C34.9987 22.9 34.4487 23.3 33.9154 23.1333L27.3654 21.1C25.5654 20.55 23.632 21.0166 22.3154 22.3333C20.982 23.6666 20.4987 25.6166 21.0654 27.4166L23.082 33.9166C23.2487 34.45 22.8487 35 22.282 35H12.532C6.78203 35 3.33203 31.5666 3.33203 25.8V12.5333C3.33203 6.76665 6.78203 3.33331 12.532 3.33331H25.7987C31.5487 3.33331 34.9987 6.76665 34.9987 12.5333Z" fill="#292D32"/>
<path d="M36.6014 31.4L33.8848 32.3166C33.1348 32.5666 32.5348 33.15 32.2848 33.9166L31.3681 36.6333C30.5848 38.9833 27.2848 38.9333 26.5514 36.5833L23.4681 26.6666C22.8681 24.7 24.6848 22.8666 26.6348 23.4833L36.5681 26.5666C38.9014 27.3 38.9348 30.6166 36.6014 31.4Z" fill="#292D32"/>
</svg>
