<svg width="40" height="40" viewBox="0 0 40 40" fill="none" xmlns="http://www.w3.org/2000/svg">
<path d="M32.0667 9.3H31.4L25.7667 3.66667C25.3167 3.21667 24.5834 3.21667 24.1167 3.66667C23.6667 4.11667 23.6667 4.85 24.1167 5.31667L28.1 9.3H11.9L15.8834 5.31667C16.3334 4.86667 16.3334 4.13334 15.8834 3.66667C15.4334 3.21667 14.7 3.21667 14.2334 3.66667L8.61671 9.3H7.95004C6.45004 9.3 3.33337 9.3 3.33337 13.5667C3.33337 15.1833 3.66671 16.25 4.36671 16.95C4.76671 17.3667 5.25004 17.5833 5.76671 17.7C6.25004 17.8167 6.76671 17.8333 7.26671 17.8333H32.7334C33.25 17.8333 33.7334 17.8 34.2 17.7C35.6 17.3667 36.6667 16.3667 36.6667 13.5667C36.6667 9.3 33.55 9.3 32.0667 9.3Z" fill="white"/>
<path d="M31.75 20H8.11664C7.08331 20 6.29997 20.9167 6.46664 21.9333L7.86664 30.5C8.33331 33.3667 9.58331 36.6667 15.1333 36.6667H24.4833C30.1 36.6667 31.1 33.85 31.7 30.7L33.3833 21.9833C33.5833 20.95 32.8 20 31.75 20ZM17.6833 30.75C17.6833 31.4 17.1666 31.9167 16.5333 31.9167C15.8833 31.9167 15.3666 31.4 15.3666 30.75V25.25C15.3666 24.6167 15.8833 24.0833 16.5333 24.0833C17.1666 24.0833 17.6833 24.6167 17.6833 25.25V30.75ZM24.8166 30.75C24.8166 31.4 24.3 31.9167 23.65 31.9167C23.0166 31.9167 22.4833 31.4 22.4833 30.75V25.25C22.4833 24.6167 23.0166 24.0833 23.65 24.0833C24.3 24.0833 24.8166 24.6167 24.8166 25.25V30.75Z" fill="white"/>
</svg>
