<svg width="30" height="30" viewBox="0 0 30 30" fill="none" xmlns="http://www.w3.org/2000/svg">
<path d="M1.16003 30C1.00825 30.0009 0.857778 29.9718 0.717257 29.9143C0.576736 29.8569 0.448927 29.7723 0.341158 29.6654C0.233057 29.5582 0.147254 29.4306 0.0887003 29.29C0.0301465 29.1494 0 28.9986 0 28.8463C0 28.694 0.0301465 28.5432 0.0887003 28.4026C0.147254 28.2621 0.233057 28.1345 0.341158 28.0272L28.0215 0.339283C28.2387 0.122044 28.5332 0 28.8404 0C29.1475 0 29.442 0.122044 29.6592 0.339283C29.8764 0.556522 29.9984 0.851162 29.9984 1.15838C29.9984 1.46561 29.8764 1.76025 29.6592 1.97749L1.97891 29.6654C1.87114 29.7723 1.74333 29.8569 1.60281 29.9143C1.46229 29.9718 1.31182 30.0009 1.16003 30Z" fill="white"/>
<path d="M28.8398 30C28.6881 30.0009 28.5376 29.9718 28.3971 29.9143C28.2566 29.8569 28.1287 29.7723 28.021 29.6654L0.340654 1.97749C0.123475 1.76025 0.00146484 1.46561 0.00146484 1.15838C0.00146485 0.851161 0.123475 0.556522 0.340654 0.339283C0.557834 0.122044 0.852392 2.28899e-09 1.15953 0C1.46667 -2.28899e-09 1.76123 0.122044 1.97841 0.339283L29.6587 28.0272C29.7668 28.1345 29.8526 28.2621 29.9112 28.4026C29.9697 28.5432 29.9999 28.694 29.9999 28.8463C29.9999 28.9986 29.9697 29.1494 29.9112 29.29C29.8526 29.4306 29.7668 29.5582 29.6587 29.6654C29.551 29.7723 29.4231 29.8569 29.2826 29.9143C29.1421 29.9718 28.9916 30.0009 28.8398 30Z" fill="white"/>
</svg>
