<svg width="64" height="64" viewBox="0 0 64 64" fill="none" xmlns="http://www.w3.org/2000/svg">
<mask id="path-1-inside-1_133_602" fill="white">
<path d="M0 0H64V64H0V0Z"/>
</mask>
<path d="M0 0H64V64H0V0Z" fill="white"/>
<path d="M0 4H64V-4H0V4ZM64 60H0V68H64V60Z" fill="#D1D0D0" mask="url(#path-1-inside-1_133_602)"/>
<path d="M23.48 47V44.28L34.88 33.28C35.8933 32.32 36.64 31.48 37.12 30.76C37.6267 30.0133 37.96 29.3333 38.12 28.72C38.3067 28.08 38.4 27.4667 38.4 26.88C38.4 25.44 37.8933 24.3067 36.88 23.48C35.8667 22.6533 34.3867 22.24 32.44 22.24C30.9467 22.24 29.6 22.4933 28.4 23C27.2 23.48 26.16 24.24 25.28 25.28L22.56 22.92C23.6267 21.56 25.0533 20.52 26.84 19.8C28.6533 19.0533 30.64 18.68 32.8 18.68C34.7467 18.68 36.44 19 37.88 19.64C39.32 20.2533 40.4267 21.1467 41.2 22.32C42 23.4933 42.4 24.88 42.4 26.48C42.4 27.3867 42.28 28.28 42.04 29.16C41.8 30.04 41.3467 30.9733 40.68 31.96C40.0133 32.9467 39.0533 34.0533 37.8 35.28L27.64 45.08L26.68 43.52H43.6V47H23.48Z" fill="black"/>
</svg>
