<svg width="60" height="60" viewBox="0 0 60 60" fill="none" xmlns="http://www.w3.org/2000/svg">
<path d="M6.5702 28.1769L6.56925 28.1797C5.38782 31.6728 4.79333 35.0485 4.79333 38.3044V47.4124C4.79333 48.7931 5.91262 49.9124 7.29334 49.9124H18.5622C19.9429 49.9124 21.0622 48.7931 21.0622 47.4124L21.0622 38.1955L21.0622 38.1913C21.0273 34.0373 21.6896 30.2547 23.0413 26.837C24.2029 23.9442 25.5931 21.1501 27.2121 18.4544C27.9071 17.2973 27.6031 15.7749 26.4626 15.015L20.4359 10.999C19.5207 10.3892 18.2912 10.4378 17.458 11.1975C15.2871 13.1769 13.303 15.5143 11.5047 18.2065L11.504 18.2076C9.43062 21.3283 7.78583 24.6517 6.5702 28.1769ZM33.4498 28.1769L33.4488 28.1797C32.2674 31.6728 31.6729 35.0485 31.6729 38.3044V47.4124C31.6729 48.7931 32.7922 49.9124 34.1729 49.9124H45.4418C46.8225 49.9124 47.9418 48.7931 47.9418 47.4124L47.9418 38.1955L47.9417 38.1913C47.9069 34.0375 48.5691 30.255 49.9207 26.8374C51.0823 23.9445 52.4726 21.1502 54.0917 18.4544C54.7867 17.2973 54.4826 15.7749 53.3422 15.015L47.3155 10.999C46.4003 10.3892 45.1708 10.4378 44.3376 11.1975C42.1666 13.1769 40.1826 15.5143 38.3842 18.2065L38.3836 18.2076C36.3102 21.3283 34.6654 24.6517 33.4498 28.1769Z" fill="#FFE566" stroke="#FFE566"/>
</svg>
